<mxfile host="Electron" agent="Mozilla/5.0 (Windows NT 10.0; Win64; x64) AppleWebKit/537.36 (KHTML, like Gecko) draw.io/25.0.2 Chrome/128.0.6613.186 Electron/32.2.5 Safari/537.36" version="25.0.2">
  <diagram id="C5RBs43oDa-KdzZeNtuy" name="Page-1">
    <mxGraphModel dx="1434" dy="956" grid="1" gridSize="10" guides="1" tooltips="1" connect="1" arrows="1" fold="1" page="1" pageScale="1" pageWidth="827" pageHeight="1169" math="0" shadow="0">
      <root>
        <mxCell id="WIyWlLk6GJQsqaUBKTNV-0" />
        <mxCell id="WIyWlLk6GJQsqaUBKTNV-1" parent="WIyWlLk6GJQsqaUBKTNV-0" />
        <mxCell id="2kU54FXnEXZDbYCRkdVb-12" style="edgeStyle=orthogonalEdgeStyle;rounded=0;orthogonalLoop=1;jettySize=auto;html=1;exitX=0.5;exitY=1;exitDx=0;exitDy=0;exitPerimeter=0;fontFamily=Helvetica;flowAnimation=0;labelBorderColor=none;" parent="WIyWlLk6GJQsqaUBKTNV-1" source="2kU54FXnEXZDbYCRkdVb-0" target="2kU54FXnEXZDbYCRkdVb-1" edge="1">
          <mxGeometry relative="1" as="geometry" />
        </mxCell>
        <mxCell id="2kU54FXnEXZDbYCRkdVb-0" value="&lt;font style=&quot;font-size: 16px;&quot;&gt;&lt;b&gt;Start&lt;/b&gt;&lt;/font&gt;" style="strokeWidth=2;html=1;shape=mxgraph.flowchart.start_2;whiteSpace=wrap;fontFamily=Helvetica;labelBorderColor=none;" parent="WIyWlLk6GJQsqaUBKTNV-1" vertex="1">
          <mxGeometry x="155" y="170" width="70" height="70" as="geometry" />
        </mxCell>
        <mxCell id="2kU54FXnEXZDbYCRkdVb-9" style="edgeStyle=orthogonalEdgeStyle;rounded=0;orthogonalLoop=1;jettySize=auto;html=1;exitX=0.5;exitY=1;exitDx=0;exitDy=0;exitPerimeter=0;fontFamily=Helvetica;flowAnimation=0;labelBorderColor=none;" parent="WIyWlLk6GJQsqaUBKTNV-1" source="2kU54FXnEXZDbYCRkdVb-1" target="2kU54FXnEXZDbYCRkdVb-2" edge="1">
          <mxGeometry relative="1" as="geometry" />
        </mxCell>
        <mxCell id="2kU54FXnEXZDbYCRkdVb-10" value="&lt;font style=&quot;font-size: 14px;&quot;&gt;No&lt;/font&gt;" style="edgeLabel;html=1;align=center;verticalAlign=middle;resizable=0;points=[];fontStyle=1;spacingLeft=0;spacingRight=30;fontFamily=Helvetica;labelBorderColor=none;" parent="2kU54FXnEXZDbYCRkdVb-9" vertex="1" connectable="0">
          <mxGeometry x="-0.1889" y="-1" relative="1" as="geometry">
            <mxPoint as="offset" />
          </mxGeometry>
        </mxCell>
        <mxCell id="2kU54FXnEXZDbYCRkdVb-1" value="&lt;b&gt;&lt;font style=&quot;font-size: 16px;&quot;&gt;Has timeout passed?&lt;/font&gt;&lt;/b&gt;" style="strokeWidth=2;html=1;shape=mxgraph.flowchart.decision;whiteSpace=wrap;fontFamily=Helvetica;labelBorderColor=none;" parent="WIyWlLk6GJQsqaUBKTNV-1" vertex="1">
          <mxGeometry x="80" y="280" width="220" height="150" as="geometry" />
        </mxCell>
        <mxCell id="2kU54FXnEXZDbYCRkdVb-14" style="edgeStyle=orthogonalEdgeStyle;rounded=0;orthogonalLoop=1;jettySize=auto;html=1;exitX=1;exitY=0.5;exitDx=0;exitDy=0;entryX=0;entryY=0.5;entryDx=0;entryDy=0;endArrow=none;endFill=0;dashed=1;fontFamily=Helvetica;flowAnimation=0;labelBorderColor=none;opacity=50;" parent="WIyWlLk6GJQsqaUBKTNV-1" source="2kU54FXnEXZDbYCRkdVb-2" target="2kU54FXnEXZDbYCRkdVb-5" edge="1">
          <mxGeometry relative="1" as="geometry" />
        </mxCell>
        <mxCell id="2kU54FXnEXZDbYCRkdVb-2" value="&lt;font style=&quot;font-size: 16px;&quot;&gt;&lt;b&gt;Regular Routine&lt;/b&gt;&lt;/font&gt;" style="rounded=1;whiteSpace=wrap;html=1;absoluteArcSize=1;arcSize=14;strokeWidth=2;fontFamily=Helvetica;labelBorderColor=none;" parent="WIyWlLk6GJQsqaUBKTNV-1" vertex="1">
          <mxGeometry x="115" y="550" width="150" height="90" as="geometry" />
        </mxCell>
        <mxCell id="2kU54FXnEXZDbYCRkdVb-5" value="&lt;font style=&quot;font-size: 16px;&quot;&gt;&lt;b&gt;Regular Routine&lt;/b&gt;&lt;/font&gt;" style="rounded=1;whiteSpace=wrap;html=1;absoluteArcSize=1;arcSize=14;strokeWidth=2;fontFamily=Helvetica;glass=0;labelBorderColor=none;" parent="WIyWlLk6GJQsqaUBKTNV-1" vertex="1">
          <mxGeometry x="400" y="550" width="150" height="90" as="geometry" />
        </mxCell>
        <mxCell id="2kU54FXnEXZDbYCRkdVb-15" style="edgeStyle=orthogonalEdgeStyle;rounded=0;orthogonalLoop=1;jettySize=auto;html=1;exitX=0.5;exitY=1;exitDx=0;exitDy=0;exitPerimeter=0;entryX=0.5;entryY=0;entryDx=0;entryDy=0;fontFamily=Helvetica;flowAnimation=0;labelBorderColor=none;" parent="WIyWlLk6GJQsqaUBKTNV-1" source="2kU54FXnEXZDbYCRkdVb-6" target="2kU54FXnEXZDbYCRkdVb-5" edge="1">
          <mxGeometry relative="1" as="geometry" />
        </mxCell>
        <mxCell id="2kU54FXnEXZDbYCRkdVb-16" value="&lt;b&gt;&lt;font style=&quot;font-size: 14px;&quot;&gt;No&lt;/font&gt;&lt;/b&gt;" style="edgeLabel;html=1;align=center;verticalAlign=middle;resizable=0;points=[];spacingRight=30;spacing=0;fontFamily=Helvetica;labelBorderColor=none;" parent="2kU54FXnEXZDbYCRkdVb-15" vertex="1" connectable="0">
          <mxGeometry x="-0.0889" y="-2" relative="1" as="geometry">
            <mxPoint as="offset" />
          </mxGeometry>
        </mxCell>
        <mxCell id="2kU54FXnEXZDbYCRkdVb-6" value="&lt;b&gt;&lt;font style=&quot;font-size: 16px;&quot;&gt;Is a valid application available on board?&lt;/font&gt;&lt;/b&gt;" style="strokeWidth=2;html=1;shape=mxgraph.flowchart.decision;whiteSpace=wrap;fontFamily=Helvetica;labelBorderColor=none;" parent="WIyWlLk6GJQsqaUBKTNV-1" vertex="1">
          <mxGeometry x="370" y="280" width="210" height="150" as="geometry" />
        </mxCell>
        <mxCell id="2kU54FXnEXZDbYCRkdVb-7" style="edgeStyle=orthogonalEdgeStyle;rounded=0;orthogonalLoop=1;jettySize=auto;html=1;exitX=1;exitY=0.5;exitDx=0;exitDy=0;exitPerimeter=0;entryX=0;entryY=0.5;entryDx=0;entryDy=0;entryPerimeter=0;fontFamily=Helvetica;flowAnimation=0;labelBorderColor=none;" parent="WIyWlLk6GJQsqaUBKTNV-1" source="2kU54FXnEXZDbYCRkdVb-1" target="2kU54FXnEXZDbYCRkdVb-6" edge="1">
          <mxGeometry relative="1" as="geometry" />
        </mxCell>
        <mxCell id="2kU54FXnEXZDbYCRkdVb-8" value="&lt;font style=&quot;font-size: 14px;&quot;&gt;&lt;b&gt;Yes&lt;/b&gt;&lt;/font&gt;" style="edgeLabel;html=1;align=center;verticalAlign=bottom;resizable=0;points=[];spacing=4;fontFamily=Helvetica;labelBorderColor=none;" parent="2kU54FXnEXZDbYCRkdVb-7" vertex="1" connectable="0">
          <mxGeometry x="-0.3238" y="1" relative="1" as="geometry">
            <mxPoint as="offset" />
          </mxGeometry>
        </mxCell>
        <mxCell id="2kU54FXnEXZDbYCRkdVb-13" value="&lt;font style=&quot;font-size: 16px;&quot;&gt;&lt;b&gt;Start the application&lt;/b&gt;&lt;/font&gt;" style="strokeWidth=2;html=1;shape=mxgraph.flowchart.terminator;whiteSpace=wrap;fontFamily=Helvetica;labelBorderColor=none;" parent="WIyWlLk6GJQsqaUBKTNV-1" vertex="1">
          <mxGeometry x="630" y="322.5" width="120" height="65" as="geometry" />
        </mxCell>
        <mxCell id="2kU54FXnEXZDbYCRkdVb-17" style="edgeStyle=orthogonalEdgeStyle;rounded=0;orthogonalLoop=1;jettySize=auto;html=1;exitX=0;exitY=0.5;exitDx=0;exitDy=0;entryX=0;entryY=0.5;entryDx=0;entryDy=0;entryPerimeter=0;fontFamily=Helvetica;shadow=0;flowAnimation=0;labelBorderColor=none;" parent="WIyWlLk6GJQsqaUBKTNV-1" source="2kU54FXnEXZDbYCRkdVb-2" target="2kU54FXnEXZDbYCRkdVb-1" edge="1">
          <mxGeometry relative="1" as="geometry">
            <Array as="points">
              <mxPoint x="50" y="595" />
              <mxPoint x="50" y="355" />
            </Array>
          </mxGeometry>
        </mxCell>
        <mxCell id="2kU54FXnEXZDbYCRkdVb-19" style="edgeStyle=orthogonalEdgeStyle;rounded=0;orthogonalLoop=1;jettySize=auto;html=1;exitX=0.5;exitY=1;exitDx=0;exitDy=0;entryX=1;entryY=0.5;entryDx=0;entryDy=0;fontFamily=Helvetica;flowAnimation=0;labelBorderColor=none;" parent="WIyWlLk6GJQsqaUBKTNV-1" source="2kU54FXnEXZDbYCRkdVb-5" target="2kU54FXnEXZDbYCRkdVb-5" edge="1">
          <mxGeometry relative="1" as="geometry" />
        </mxCell>
        <mxCell id="2kU54FXnEXZDbYCRkdVb-20" style="edgeStyle=orthogonalEdgeStyle;rounded=0;orthogonalLoop=1;jettySize=auto;html=1;exitX=1;exitY=0.5;exitDx=0;exitDy=0;exitPerimeter=0;entryX=0;entryY=0.5;entryDx=0;entryDy=0;entryPerimeter=0;fontFamily=Helvetica;flowAnimation=0;labelBorderColor=none;" parent="WIyWlLk6GJQsqaUBKTNV-1" source="2kU54FXnEXZDbYCRkdVb-6" target="2kU54FXnEXZDbYCRkdVb-13" edge="1">
          <mxGeometry relative="1" as="geometry" />
        </mxCell>
        <mxCell id="2kU54FXnEXZDbYCRkdVb-21" value="&lt;font style=&quot;font-size: 14px;&quot;&gt;&lt;b&gt;Yes&lt;/b&gt;&lt;/font&gt;" style="edgeLabel;html=1;align=center;verticalAlign=bottom;resizable=0;points=[];labelPosition=center;verticalLabelPosition=top;spacing=6;fontFamily=Helvetica;labelBorderColor=none;" parent="2kU54FXnEXZDbYCRkdVb-20" vertex="1" connectable="0">
          <mxGeometry x="-0.2833" y="-2" relative="1" as="geometry">
            <mxPoint as="offset" />
          </mxGeometry>
        </mxCell>
      </root>
    </mxGraphModel>
  </diagram>
</mxfile>
